<svg width="48" height="48" viewBox="0 0 48 48" fill="none" xmlns="http://www.w3.org/2000/svg">
<g clip-path="url(#clip0_982_12013)">
<path opacity="0.2" d="M23.9999 6C20.3577 5.99894 16.8008 7.10281 13.7992 9.1658C10.7976 11.2288 8.49242 14.1538 7.18821 17.5545C5.884 20.9552 5.64212 24.6716 6.49452 28.2126C7.34692 31.7537 9.2535 34.9528 11.9624 37.3875C13.0911 35.1648 14.8133 33.298 16.938 31.994C19.0627 30.6901 21.507 29.9999 23.9999 30C22.5165 30 21.0665 29.5601 19.8331 28.736C18.5997 27.9119 17.6385 26.7406 17.0708 25.3701C16.5031 23.9997 16.3546 22.4917 16.644 21.0368C16.9334 19.582 17.6477 18.2456 18.6966 17.1967C19.7455 16.1478 21.0819 15.4335 22.5367 15.1441C23.9916 14.8547 25.4996 15.0032 26.87 15.5709C28.2405 16.1386 29.4118 17.0999 30.2359 18.3332C31.06 19.5666 31.4999 21.0166 31.4999 22.5C31.4999 24.4891 30.7097 26.3968 29.3032 27.8033C27.8967 29.2098 25.989 30 23.9999 30C26.4928 29.9999 28.9371 30.6901 31.0618 31.994C33.1865 33.298 34.9087 35.1648 36.0374 37.3875C38.7463 34.9528 40.6529 31.7537 41.5053 28.2126C42.3577 24.6716 42.1158 20.9552 40.8116 17.5545C39.5074 14.1538 37.2022 11.2288 34.2006 9.1658C31.1989 7.10281 27.6421 5.99894 23.9999 6Z" fill="#51B800"/>
<path d="M24 30C28.1421 30 31.5 26.6421 31.5 22.5C31.5 18.3579 28.1421 15 24 15C19.8579 15 16.5 18.3579 16.5 22.5C16.5 26.6421 19.8579 30 24 30Z" stroke="#51B800" stroke-width="3" stroke-linecap="round" stroke-linejoin="round"/>
<path d="M11.9624 37.3876C13.091 35.1646 14.8131 33.2976 16.9378 31.9934C19.0625 30.6892 21.5069 29.9989 23.9999 29.9989C26.4929 29.9989 28.9373 30.6892 31.062 31.9934C33.1867 33.2976 34.9088 35.1646 36.0374 37.3876" stroke="#51B800" stroke-width="3" stroke-linecap="round" stroke-linejoin="round"/>
<path d="M37.5 24L42 28.5L46.5 24" stroke="#51B800" stroke-width="3" stroke-linecap="round" stroke-linejoin="round"/>
<path d="M1.5 24L6 19.5L10.5 24" stroke="#51B800" stroke-width="3" stroke-linecap="round" stroke-linejoin="round"/>
<path d="M41.9999 28.5V24C42.0041 20.111 40.7487 16.3252 38.4216 13.2093C36.0945 10.0934 32.8208 7.81506 29.0905 6.7152C25.3603 5.61534 21.3742 5.75317 17.7288 7.10807C14.0835 8.46297 10.975 10.9621 8.86865 14.2312" stroke="#51B800" stroke-width="3" stroke-linecap="round" stroke-linejoin="round"/>
<path d="M6.00001 19.5V24C5.99577 27.889 7.25117 31.6748 9.57831 34.7907C11.9054 37.9065 15.1791 40.1849 18.9094 41.2848C22.6396 42.3847 26.6257 42.2468 30.2711 40.8919C33.9164 39.537 37.0249 37.0379 39.1313 33.7688" stroke="#51B800" stroke-width="3" stroke-linecap="round" stroke-linejoin="round"/>
</g>
<defs>
<clipPath id="clip0_982_12013">
<rect width="48" height="48" fill="white"/>
</clipPath>
</defs>
</svg>
