<svg width="48" height="48" viewBox="0 0 48 48" fill="none" xmlns="http://www.w3.org/2000/svg">
<g clip-path="url(#clip0_982_11993)">
<path opacity="0.2" d="M26.0064 32.9062L22.4064 42.6749C22.2999 42.962 22.108 43.2096 21.8566 43.3844C21.6053 43.5593 21.3064 43.653 21.0002 43.653C20.694 43.653 20.3951 43.5593 20.1437 43.3844C19.8924 43.2096 19.7005 42.962 19.5939 42.6749L15.9939 32.9062C15.918 32.7 15.7982 32.5128 15.6428 32.3574C15.4874 32.202 15.3001 32.0822 15.0939 32.0062L5.32519 28.4062C5.03812 28.2996 4.79055 28.1078 4.61571 27.8564C4.44088 27.605 4.34717 27.3062 4.34717 26.9999C4.34717 26.6937 4.44088 26.3949 4.61571 26.1435C4.79055 25.8921 5.03812 25.7003 5.32519 25.5937L15.0939 21.9937C15.3001 21.9177 15.4874 21.7979 15.6428 21.6425C15.7982 21.4871 15.918 21.2999 15.9939 21.0937L19.5939 11.3249C19.7005 11.0379 19.8924 10.7903 20.1437 10.6155C20.3951 10.4406 20.694 10.3469 21.0002 10.3469C21.3064 10.3469 21.6053 10.4406 21.8566 10.6155C22.108 10.7903 22.2999 11.0379 22.4064 11.3249L26.0064 21.0937C26.0824 21.2999 26.2022 21.4871 26.3576 21.6425C26.513 21.7979 26.7002 21.9177 26.9064 21.9937L36.6752 25.5937C36.9623 25.7003 37.2098 25.8921 37.3847 26.1435C37.5595 26.3949 37.6532 26.6937 37.6532 26.9999C37.6532 27.3062 37.5595 27.605 37.3847 27.8564C37.2098 28.1078 36.9623 28.2996 36.6752 28.4062L26.9064 32.0062C26.7002 32.0822 26.513 32.202 26.3576 32.3574C26.2022 32.5128 26.0824 32.7 26.0064 32.9062Z" fill="#51B800"/>
<path d="M26.0064 32.9062L22.4064 42.6749C22.2999 42.962 22.108 43.2096 21.8566 43.3844C21.6053 43.5593 21.3064 43.653 21.0002 43.653C20.694 43.653 20.3951 43.5593 20.1437 43.3844C19.8924 43.2096 19.7005 42.962 19.5939 42.6749L15.9939 32.9062C15.918 32.7 15.7982 32.5128 15.6428 32.3574C15.4874 32.202 15.3001 32.0822 15.0939 32.0062L5.32519 28.4062C5.03812 28.2996 4.79055 28.1078 4.61571 27.8564C4.44088 27.605 4.34717 27.3062 4.34717 26.9999C4.34717 26.6937 4.44088 26.3949 4.61571 26.1435C4.79055 25.8921 5.03812 25.7003 5.32519 25.5937L15.0939 21.9937C15.3001 21.9177 15.4874 21.7979 15.6428 21.6425C15.7982 21.4871 15.918 21.2999 15.9939 21.0937L19.5939 11.3249C19.7005 11.0379 19.8924 10.7903 20.1437 10.6155C20.3951 10.4406 20.694 10.3469 21.0002 10.3469C21.3064 10.3469 21.6053 10.4406 21.8566 10.6155C22.108 10.7903 22.2999 11.0379 22.4064 11.3249L26.0064 21.0937C26.0824 21.2999 26.2022 21.4871 26.3576 21.6425C26.513 21.7979 26.7002 21.9177 26.9064 21.9937L36.6752 25.5937C36.9623 25.7003 37.2098 25.8921 37.3847 26.1435C37.5595 26.3949 37.6532 26.6937 37.6532 26.9999C37.6532 27.3062 37.5595 27.605 37.3847 27.8564C37.2098 28.1078 36.9623 28.2996 36.6752 28.4062L26.9064 32.0062C26.7002 32.0822 26.513 32.202 26.3576 32.3574C26.2022 32.5128 26.0824 32.7 26.0064 32.9062Z" stroke="#51B800" stroke-width="3" stroke-linecap="round" stroke-linejoin="round"/>
<path d="M33 3V12" stroke="#51B800" stroke-width="3" stroke-linecap="round" stroke-linejoin="round"/>
<path d="M37.5 7.5H28.5" stroke="#51B800" stroke-width="3" stroke-linecap="round" stroke-linejoin="round"/>
<path d="M42 13.5V19.5" stroke="#51B800" stroke-width="3" stroke-linecap="round" stroke-linejoin="round"/>
<path d="M45 16.5H39" stroke="#51B800" stroke-width="3" stroke-linecap="round" stroke-linejoin="round"/>
</g>
<defs>
<clipPath id="clip0_982_11993">
<rect width="48" height="48" fill="white"/>
</clipPath>
</defs>
</svg>
