<svg width="48" height="48" viewBox="0 0 48 48" fill="none" xmlns="http://www.w3.org/2000/svg">
<g clip-path="url(#clip0_982_11979)">
<path opacity="0.2" d="M6 19.5H15V39H6C5.60218 39 5.22064 38.842 4.93934 38.5607C4.65804 38.2794 4.5 37.8978 4.5 37.5V21C4.5 20.6022 4.65804 20.2206 4.93934 19.9393C5.22064 19.658 5.60218 19.5 6 19.5Z" fill="#51B800"/>
<path d="M6 19.5H15V39H6C5.60218 39 5.22064 38.842 4.93934 38.5607C4.65804 38.2794 4.5 37.8978 4.5 37.5V21C4.5 20.6022 4.65804 20.2206 4.93934 19.9393C5.22064 19.658 5.60218 19.5 6 19.5Z" stroke="#51B800" stroke-width="3" stroke-linecap="round" stroke-linejoin="round"/>
<path d="M15 19.5L22.5 4.5C24.0913 4.5 25.6174 5.13214 26.7426 6.25736C27.8679 7.38258 28.5 8.9087 28.5 10.5V15H40.1062C40.5316 14.9989 40.9523 15.0889 41.34 15.2639C41.7277 15.4389 42.0735 15.6949 42.3541 16.0146C42.6348 16.3342 42.8437 16.7103 42.967 17.1174C43.0902 17.5246 43.1249 17.9533 43.0687 18.375L40.8187 36.375C40.7277 37.0976 40.3769 37.7624 39.8318 38.2454C39.2867 38.7284 38.5845 38.9966 37.8562 39H15" stroke="#51B800" stroke-width="3" stroke-linecap="round" stroke-linejoin="round"/>
</g>
<defs>
<clipPath id="clip0_982_11979">
<rect width="48" height="48" fill="white"/>
</clipPath>
</defs>
</svg>
