<svg width="48" height="48" viewBox="0 0 48 48" fill="none" xmlns="http://www.w3.org/2000/svg">
<g clip-path="url(#clip0_982_12246)">
<path opacity="0.2" d="M17.6437 34.6125C15.5062 40.9687 7.03125 40.9687 7.03125 40.9687C7.03125 40.9687 7.03125 32.4937 13.3875 30.3562L17.6437 34.6125Z" fill="#51B800"/>
<path opacity="0.2" d="M34.6125 21.8813V33.9938C34.6069 34.3895 34.4451 34.7669 34.1625 35.0438L28.1062 41.1188C27.9141 41.3108 27.6735 41.4469 27.41 41.5128C27.1466 41.5787 26.8702 41.5718 26.6103 41.4928C26.3505 41.4139 26.1169 41.2659 25.9346 41.0647C25.7522 40.8634 25.628 40.6165 25.575 40.3501L24 32.4938L34.6125 21.8813Z" fill="#51B800"/>
<path opacity="0.2" d="M26.1186 13.3875H14.0061C13.6105 13.3931 13.2331 13.5548 12.9561 13.8375L6.88111 19.8937C6.68919 20.0858 6.55304 20.3265 6.48717 20.5899C6.4213 20.8534 6.4282 21.1298 6.50711 21.3896C6.58603 21.6495 6.73401 21.883 6.93527 22.0654C7.13653 22.2477 7.38351 22.372 7.64986 22.4249L15.5061 24L26.1186 13.3875Z" fill="#51B800"/>
<path d="M17.6437 34.6125C15.5062 40.9687 7.03125 40.9687 7.03125 40.9687C7.03125 40.9687 7.03125 32.4937 13.3875 30.3562" stroke="#51B800" stroke-width="3" stroke-linecap="round" stroke-linejoin="round"/>
<path d="M36.7313 19.7625L24.0001 32.4938L15.5063 24L28.2376 11.2688C33.0563 6.45002 37.8751 6.50627 39.9376 6.80627C40.2559 6.84873 40.5513 6.99475 40.7783 7.22178C41.0054 7.44882 41.1514 7.74426 41.1938 8.06252C41.4938 10.125 41.5501 14.9438 36.7313 19.7625Z" stroke="#51B800" stroke-width="3" stroke-linecap="round" stroke-linejoin="round"/>
<path d="M34.6125 21.8813V33.9938C34.6069 34.3895 34.4451 34.7669 34.1625 35.0438L28.1062 41.1188C27.9141 41.3108 27.6735 41.4469 27.41 41.5128C27.1466 41.5787 26.8702 41.5718 26.6103 41.4928C26.3505 41.4139 26.1169 41.2659 25.9346 41.0647C25.7522 40.8634 25.628 40.6165 25.575 40.3501L24 32.4938" stroke="#51B800" stroke-width="3" stroke-linecap="round" stroke-linejoin="round"/>
<path d="M26.1186 13.3875H14.0061C13.6105 13.3931 13.2331 13.5548 12.9561 13.8375L6.88111 19.8937C6.68919 20.0858 6.55304 20.3265 6.48717 20.5899C6.4213 20.8534 6.4282 21.1298 6.50711 21.3896C6.58603 21.6495 6.73401 21.883 6.93527 22.0654C7.13653 22.2477 7.38351 22.372 7.64986 22.4249L15.5061 24" stroke="#51B800" stroke-width="3" stroke-linecap="round" stroke-linejoin="round"/>
</g>
<defs>
<clipPath id="clip0_982_12246">
<rect width="48" height="48" fill="white"/>
</clipPath>
</defs>
</svg>
