<svg width="48" height="48" viewBox="0 0 48 48" fill="none" xmlns="http://www.w3.org/2000/svg">
<g clip-path="url(#clip0_982_11947)">
<path opacity="0.2" d="M13.856 20.8875L7.96854 27.9375C7.82022 28.1105 7.71557 28.3166 7.66337 28.5384C7.61117 28.7603 7.61294 28.9914 7.66854 29.2125L9.97479 39.6562C10.0304 39.9044 10.1483 40.1345 10.3173 40.3246C10.4864 40.5148 10.701 40.6588 10.941 40.7432C11.181 40.8276 11.4385 40.8495 11.6893 40.8069C11.9402 40.7644 12.176 40.6588 12.3748 40.5L17.9998 36C14.6998 30.2625 13.631 25.2187 13.856 20.8875Z" fill="#51B800"/>
<path opacity="0.2" d="M34.0314 20.7562L39.9189 27.825C40.0673 27.998 40.1719 28.2041 40.2241 28.426C40.2763 28.6478 40.2745 28.879 40.2189 29.1L37.9127 39.525C37.8595 39.7748 37.7435 40.0069 37.5755 40.1993C37.4075 40.3917 37.1932 40.5381 36.9528 40.6244C36.7125 40.7108 36.454 40.7344 36.202 40.6929C35.95 40.6515 35.7127 40.5463 35.5127 40.3875L29.8877 35.8875C33.1877 30.1312 34.2564 25.0875 34.0314 20.7562Z" fill="#51B800"/>
<path d="M27 42H21" stroke="#51B800" stroke-width="3" stroke-linecap="round" stroke-linejoin="round"/>
<path d="M23.0624 3.71244C19.4999 6.56244 7.59365 17.9624 17.9999 35.9999H29.9999C40.1999 17.9624 28.4624 6.58119 24.9374 3.71244C24.6744 3.49277 24.3426 3.37244 23.9999 3.37244C23.6572 3.37244 23.3254 3.49277 23.0624 3.71244Z" stroke="#51B800" stroke-width="3" stroke-linecap="round" stroke-linejoin="round"/>
<path d="M13.856 20.8875L7.96854 27.9375C7.82022 28.1105 7.71557 28.3166 7.66337 28.5384C7.61117 28.7603 7.61294 28.9914 7.66854 29.2125L9.97479 39.6562C10.0304 39.9044 10.1483 40.1345 10.3173 40.3246C10.4864 40.5148 10.701 40.6588 10.941 40.7432C11.181 40.8276 11.4385 40.8495 11.6893 40.807C11.9402 40.7644 12.176 40.6588 12.3748 40.5L17.9998 36" stroke="#51B800" stroke-width="3" stroke-linecap="round" stroke-linejoin="round"/>
<path d="M34.0312 20.7375L40.0312 27.9375C40.1796 28.1106 40.2842 28.3167 40.3364 28.5385C40.3886 28.7604 40.3868 28.9915 40.3313 29.2125L38.025 39.6563C37.9693 39.9045 37.8515 40.1346 37.6825 40.3247C37.5134 40.5149 37.2988 40.6589 37.0588 40.7433C36.8188 40.8276 36.5613 40.8496 36.3105 40.807C36.0596 40.7645 35.8238 40.6589 35.625 40.5L30 36" stroke="#51B800" stroke-width="3" stroke-linecap="round" stroke-linejoin="round"/>
<path d="M24 20.25C25.2426 20.25 26.25 19.2426 26.25 18C26.25 16.7574 25.2426 15.75 24 15.75C22.7574 15.75 21.75 16.7574 21.75 18C21.75 19.2426 22.7574 20.25 24 20.25Z" fill="#51B800"/>
</g>
<defs>
<clipPath id="clip0_982_11947">
<rect width="48" height="48" fill="white"/>
</clipPath>
</defs>
</svg>
