<svg width="132" height="18" viewBox="0 0 132 18" fill="none" xmlns="http://www.w3.org/2000/svg">
<g clip-path="url(#clip0_2603_10)">
<path d="M16.9462 9.5105H11.5615C11.5332 9.17837 11.4166 8.89217 11.2117 8.65191C11.0067 8.41165 10.7417 8.22792 10.4167 8.10072C10.0987 7.96646 9.74536 7.89933 9.3567 7.89933C8.85498 7.89933 8.42392 7.99119 8.06353 8.17492C7.70314 8.35865 7.52647 8.62011 7.53354 8.95931C7.52647 9.19957 7.62894 9.42216 7.84093 9.62709C8.06 9.83202 8.48045 9.99102 9.10231 10.1041L12.4094 10.6977C14.0771 11.0015 15.3173 11.5139 16.13 12.2346C16.9497 12.9484 17.3631 13.9059 17.3701 15.1072C17.3631 16.2661 17.0168 17.2731 16.3314 18.1281C15.653 18.9761 14.7237 19.6333 13.5436 20.0997C12.3706 20.559 11.0315 20.7887 9.5263 20.7887C7.03888 20.7887 5.09205 20.2799 3.68582 19.2623C2.28664 18.2447 1.50579 16.9021 1.34326 15.2344H7.15195C7.22968 15.7502 7.48407 16.1495 7.91513 16.4322C8.35326 16.7078 8.90445 16.8456 9.5687 16.8456C10.1058 16.8456 10.5474 16.7537 10.8937 16.57C11.247 16.3862 11.4272 16.1248 11.4343 15.7856C11.4272 15.4746 11.2717 15.2273 10.9679 15.0436C10.6711 14.8599 10.2047 14.7115 9.5687 14.5984L6.68556 14.0896C5.02492 13.7999 3.78121 13.2487 2.95443 12.436C2.12765 11.6234 1.71779 10.5775 1.72485 9.2985C1.71779 8.16786 2.01458 7.21034 2.61524 6.42596C3.22296 5.63451 4.08861 5.03385 5.21218 4.62399C6.34283 4.20707 7.68194 3.99861 9.22951 3.99861C11.5827 3.99861 13.4376 4.4862 14.7944 5.46138C16.1582 6.43656 16.8755 7.78626 16.9462 9.5105Z" fill="black"/>
<path d="M25.4631 11.3337V20.4919H19.612V-1.21649H25.2511V7.30574H25.4207C25.7881 6.26696 26.3994 5.45784 27.2544 4.87839C28.1095 4.29187 29.1377 3.99861 30.339 3.99861C31.4908 3.99861 32.4907 4.26007 33.3387 4.78299C34.1938 5.30591 34.8545 6.0267 35.3209 6.94535C35.7943 7.86399 36.0275 8.91691 36.0205 10.1041V20.4919H30.1694V11.3337C30.1765 10.5281 29.9751 9.89562 29.5652 9.4363C29.1624 8.97697 28.5865 8.74731 27.8374 8.74731C27.364 8.74731 26.9471 8.85331 26.5867 9.0653C26.2333 9.27023 25.9577 9.56703 25.7599 9.95569C25.5691 10.3373 25.4701 10.7966 25.4631 11.3337Z" fill="black"/>
<path d="M46.7528 20.7887C44.9861 20.7887 43.4739 20.4389 42.2161 19.7393C40.9582 19.0326 39.9936 18.0504 39.3223 16.7926C38.651 15.5276 38.3153 14.0613 38.3153 12.3936C38.3153 10.7259 38.651 9.26317 39.3223 8.00533C39.9936 6.74042 40.9582 5.75817 42.2161 5.05858C43.4739 4.35193 44.9861 3.99861 46.7528 3.99861C48.5194 3.99861 50.0316 4.35193 51.2895 5.05858C52.5473 5.75817 53.5119 6.74042 54.1832 8.00533C54.8545 9.26317 55.1902 10.7259 55.1902 12.3936C55.1902 14.0613 54.8545 15.5276 54.1832 16.7926C53.5119 18.0504 52.5473 19.0326 51.2895 19.7393C50.0316 20.4389 48.5194 20.7887 46.7528 20.7887ZM46.7952 16.464C47.2898 16.464 47.7173 16.2979 48.0777 15.9658C48.4381 15.6336 48.7173 15.1602 48.9151 14.5454C49.113 13.9306 49.2119 13.1992 49.2119 12.3512C49.2119 11.4962 49.113 10.7648 48.9151 10.1571C48.7173 9.5423 48.4381 9.06884 48.0777 8.73671C47.7173 8.40458 47.2898 8.23852 46.7952 8.23852C46.2722 8.23852 45.8235 8.40458 45.449 8.73671C45.0745 9.06884 44.7883 9.5423 44.5904 10.1571C44.3925 10.7648 44.2936 11.4962 44.2936 12.3512C44.2936 13.1992 44.3925 13.9306 44.5904 14.5454C44.7883 15.1602 45.0745 15.6336 45.449 15.9658C45.8235 16.2979 46.2722 16.464 46.7952 16.464Z" fill="black"/>
<path d="M57.5645 20.4919V4.2106H63.246V7.30574H63.4156C63.7124 6.16096 64.1823 5.32358 64.8254 4.79359C65.4755 4.2636 66.2352 3.99861 67.1044 3.99861C67.3587 3.99861 67.6096 4.0198 67.8569 4.0622C68.1113 4.09754 68.3551 4.15054 68.5883 4.2212V9.2137C68.2986 9.11477 67.9417 9.04057 67.5178 8.99111C67.0938 8.94164 66.7298 8.91691 66.426 8.91691C65.8536 8.91691 65.3377 9.04764 64.8784 9.3091C64.4261 9.56349 64.0693 9.92389 63.8078 10.3903C63.5464 10.8496 63.4156 11.3902 63.4156 12.012V20.4919H57.5645Z" fill="black"/>
<path d="M80.8867 4.2106V8.45052H70.1597V4.2106H80.8867ZM72.2373 0.309878H78.0884V15.2556C78.0884 15.4817 78.1273 15.6725 78.205 15.828C78.2827 15.9764 78.4028 16.0894 78.5654 16.1672C78.7279 16.2378 78.9364 16.2732 79.1908 16.2732C79.3674 16.2732 79.5724 16.252 79.8055 16.2096C80.0458 16.1672 80.2225 16.1318 80.3355 16.1036L81.1835 20.2163C80.9221 20.294 80.5475 20.3894 80.06 20.5025C79.5794 20.6155 79.007 20.6897 78.3428 20.7251C77.0001 20.7957 75.873 20.6579 74.9614 20.3117C74.0499 19.9584 73.3644 19.4036 72.9051 18.6475C72.4458 17.8914 72.2232 16.9445 72.2373 15.8068V0.309878Z" fill="black"/>
<path d="M90.9433 20.7887C89.1767 20.7887 87.6644 20.4389 86.4066 19.7393C85.1487 19.0326 84.1842 18.0504 83.5128 16.7926C82.8415 15.5276 82.5059 14.0613 82.5059 12.3936C82.5059 10.7259 82.8415 9.26317 83.5128 8.00533C84.1842 6.74042 85.1487 5.75817 86.4066 5.05858C87.6644 4.35193 89.1767 3.99861 90.9433 3.99861C92.5403 3.99861 93.9218 4.28833 95.0878 4.86779C96.2608 5.44018 97.1689 6.25283 97.812 7.30574C98.455 8.35159 98.7801 9.58116 98.7871 10.9945H93.36C93.2823 10.1394 93.035 9.4893 92.618 9.0441C92.2082 8.59185 91.6782 8.36572 91.0281 8.36572C90.5193 8.36572 90.0741 8.51412 89.6925 8.81091C89.3109 9.10064 89.0141 9.5423 88.8021 10.1359C88.5901 10.7224 88.4841 11.4609 88.4841 12.3512C88.4841 13.2416 88.5901 13.9836 88.8021 14.5772C89.0141 15.1637 89.3109 15.6054 89.6925 15.9022C90.0741 16.1919 90.5193 16.3368 91.0281 16.3368C91.4591 16.3368 91.8407 16.2378 92.1729 16.04C92.505 15.835 92.7735 15.5382 92.9784 15.1496C93.1904 14.7539 93.3176 14.2733 93.36 13.708H98.7871C98.7659 15.1425 98.4373 16.3933 97.8013 17.4603C97.1654 18.5203 96.2644 19.34 95.0984 19.9195C93.9395 20.4989 92.5545 20.7887 90.9433 20.7887Z" fill="black"/>
<path d="M130.295 4.2106V8.45052H119.568V4.2106H130.295ZM121.646 0.309878H127.497V15.2556C127.497 15.4817 127.536 15.6725 127.613 15.828C127.691 15.9764 127.811 16.0894 127.974 16.1672C128.136 16.2378 128.345 16.2732 128.599 16.2732C128.776 16.2732 128.981 16.252 129.214 16.2096C129.454 16.1672 129.631 16.1318 129.744 16.1036L130.592 20.2163C130.33 20.294 129.956 20.3894 129.468 20.5025C128.988 20.6155 128.415 20.6897 127.751 20.7251C126.408 20.7957 125.281 20.6579 124.37 20.3117C123.458 19.9584 122.773 19.4036 122.313 18.6475C121.854 17.8914 121.631 16.9445 121.646 15.8068V0.309878Z" fill="black"/>
<path d="M103.888 19.9331C104.751 20.456 105.757 20.7174 106.905 20.7174C107.845 20.7174 109.007 20.7293 109.313 20.7293C109.614 20.7293 110.889 20.7175 111.829 20.7175C112.977 20.7175 113.983 20.456 114.846 19.9331C115.701 19.4101 116.368 18.6894 116.846 17.7707C117.317 16.8521 117.556 15.7992 117.563 14.612V4.22418H111.658V13.3824C111.651 14.188 111.444 14.8204 111.037 15.2798C110.624 15.7391 110.197 15.9687 109.455 15.9687H109.429C108.688 15.9687 108.11 15.7391 107.697 15.2798C107.29 14.8204 107.083 14.188 107.076 13.3824V4.22417H101.171V14.612C101.178 15.7991 101.417 16.8521 101.888 17.7707C102.366 18.6893 103.033 19.4101 103.888 19.9331Z" fill="black"/>
</g>
<defs>
<clipPath id="clip0_2603_10">
<rect width="130.739" height="17.3124" fill="white" transform="translate(0.580078 0.343811)"/>
</clipPath>
</defs>
</svg>
