<svg width="132" height="18" viewBox="0 0 132 18" fill="none" xmlns="http://www.w3.org/2000/svg">
<g clip-path="url(#clip0_2602_6258)">
<path d="M16.9462 9.51068H11.5615C11.5332 9.17855 11.4166 8.89236 11.2117 8.6521C11.0067 8.41183 10.7417 8.2281 10.4167 8.10091C10.0987 7.96664 9.74536 7.89951 9.3567 7.89951C8.85498 7.89951 8.42392 7.99138 8.06353 8.17511C7.70314 8.35883 7.52647 8.6203 7.53354 8.95949C7.52647 9.19975 7.62894 9.42235 7.84093 9.62728C8.06 9.83221 8.48045 9.9912 9.10231 10.1043L12.4094 10.6979C14.0771 11.0017 15.3173 11.514 16.13 12.2348C16.9497 12.9485 17.3631 13.9061 17.3701 15.1074C17.3631 16.2663 17.0168 17.2733 16.3314 18.1283C15.653 18.9763 14.7237 19.6335 13.5436 20.0999C12.3706 20.5592 11.0315 20.7889 9.5263 20.7889C7.03888 20.7889 5.09205 20.2801 3.68582 19.2625C2.28664 18.2449 1.50579 16.9023 1.34326 15.2346H7.15195C7.22968 15.7504 7.48407 16.1497 7.91513 16.4323C8.35326 16.7079 8.90445 16.8457 9.5687 16.8457C10.1058 16.8457 10.5474 16.7539 10.8937 16.5701C11.247 16.3864 11.4272 16.1249 11.4343 15.7858C11.4272 15.4748 11.2717 15.2275 10.9679 15.0438C10.6711 14.86 10.2047 14.7116 9.5687 14.5986L6.68556 14.0898C5.02492 13.8001 3.78121 13.2489 2.95443 12.4362C2.12765 11.6236 1.71779 10.5777 1.72485 9.29868C1.71779 8.16804 2.01458 7.21052 2.61524 6.42614C3.22296 5.63469 4.08861 5.03403 5.21218 4.62418C6.34283 4.20725 7.68194 3.99879 9.22951 3.99879C11.5827 3.99879 13.4376 4.48638 14.7944 5.46156C16.1582 6.43674 16.8755 7.78645 16.9462 9.51068Z" fill="white"/>
<path d="M25.4631 11.3338V20.4921H19.612V-1.21631H25.2511V7.30592H25.4207C25.7881 6.26714 26.3994 5.45803 27.2544 4.87857C28.1095 4.29205 29.1377 3.99879 30.339 3.99879C31.4908 3.99879 32.4907 4.26025 33.3387 4.78317C34.1938 5.3061 34.8545 6.02688 35.3209 6.94553C35.7943 7.86418 36.0275 8.91709 36.0205 10.1043V20.4921H30.1694V11.3338C30.1765 10.5283 29.9751 9.8958 29.5652 9.43648C29.1624 8.97716 28.5865 8.74749 27.8374 8.74749C27.364 8.74749 26.9471 8.85349 26.5867 9.06549C26.2333 9.27042 25.9577 9.56721 25.7599 9.95587C25.5691 10.3375 25.4701 10.7968 25.4631 11.3338Z" fill="white"/>
<path d="M46.7528 20.7889C44.9861 20.7889 43.4739 20.4391 42.2161 19.7395C40.9582 19.0328 39.9936 18.0506 39.3223 16.7927C38.651 15.5278 38.3153 14.0615 38.3153 12.3938C38.3153 10.7261 38.651 9.26335 39.3223 8.00551C39.9936 6.7406 40.9582 5.75835 42.2161 5.05877C43.4739 4.35211 44.9861 3.99879 46.7528 3.99879C48.5194 3.99879 50.0316 4.35211 51.2895 5.05877C52.5473 5.75835 53.5119 6.7406 54.1832 8.00551C54.8545 9.26335 55.1902 10.7261 55.1902 12.3938C55.1902 14.0615 54.8545 15.5278 54.1832 16.7927C53.5119 18.0506 52.5473 19.0328 51.2895 19.7395C50.0316 20.4391 48.5194 20.7889 46.7528 20.7889ZM46.7952 16.4641C47.2898 16.4641 47.7173 16.2981 48.0777 15.966C48.4381 15.6338 48.7173 15.1604 48.9151 14.5456C49.113 13.9308 49.2119 13.1994 49.2119 12.3514C49.2119 11.4964 49.113 10.765 48.9151 10.1573C48.7173 9.54248 48.4381 9.06902 48.0777 8.73689C47.7173 8.40477 47.2898 8.2387 46.7952 8.2387C46.2722 8.2387 45.8235 8.40477 45.449 8.73689C45.0745 9.06902 44.7883 9.54248 44.5904 10.1573C44.3925 10.765 44.2936 11.4964 44.2936 12.3514C44.2936 13.1994 44.3925 13.9308 44.5904 14.5456C44.7883 15.1604 45.0745 15.6338 45.449 15.966C45.8235 16.2981 46.2722 16.4641 46.7952 16.4641Z" fill="white"/>
<path d="M57.5645 20.4921V4.21078H63.246V7.30592H63.4156C63.7124 6.16115 64.1823 5.32376 64.8254 4.79377C65.4755 4.26378 66.2352 3.99879 67.1044 3.99879C67.3588 3.99879 67.6096 4.01999 67.8569 4.06239C68.1113 4.09772 68.3551 4.15072 68.5883 4.22138V9.21389C68.2986 9.11495 67.9417 9.04076 67.5178 8.99129C67.0938 8.94182 66.7298 8.91709 66.426 8.91709C65.8536 8.91709 65.3377 9.04782 64.8784 9.30928C64.4261 9.56368 64.0693 9.92407 63.8078 10.3905C63.5464 10.8498 63.4156 11.3904 63.4156 12.0122V20.4921H57.5645Z" fill="white"/>
<path d="M80.8867 4.21078V8.4507H70.1597V4.21078H80.8867ZM72.2373 0.310061H78.0884V15.2558C78.0884 15.4819 78.1273 15.6727 78.205 15.8282C78.2827 15.9766 78.4029 16.0896 78.5654 16.1673C78.7279 16.238 78.9364 16.2733 79.1908 16.2733C79.3674 16.2733 79.5724 16.2521 79.8056 16.2097C80.0458 16.1673 80.2225 16.132 80.3355 16.1037L81.1835 20.2165C80.9221 20.2942 80.5475 20.3896 80.06 20.5027C79.5794 20.6157 79.007 20.6899 78.3428 20.7253C77.0001 20.7959 75.873 20.6581 74.9615 20.3119C74.0499 19.9585 73.3644 19.4038 72.9051 18.6477C72.4458 17.8916 72.2232 16.9447 72.2373 15.807V0.310061Z" fill="white"/>
<path d="M90.9433 20.7889C89.1767 20.7889 87.6644 20.4391 86.4066 19.7395C85.1487 19.0328 84.1842 18.0506 83.5128 16.7927C82.8415 15.5278 82.5059 14.0615 82.5059 12.3938C82.5059 10.7261 82.8415 9.26335 83.5128 8.00551C84.1842 6.7406 85.1487 5.75835 86.4066 5.05877C87.6644 4.35211 89.1767 3.99879 90.9433 3.99879C92.5403 3.99879 93.9218 4.28852 95.0878 4.86797C96.2608 5.44036 97.1689 6.25301 97.812 7.30592C98.455 8.35177 98.7801 9.58134 98.7871 10.9946H93.36C93.2823 10.1396 93.035 9.48948 92.6181 9.04429C92.2082 8.59203 91.6782 8.3659 91.0281 8.3659C90.5193 8.3659 90.0741 8.5143 89.6925 8.81109C89.3109 9.10082 89.0141 9.54248 88.8021 10.1361C88.5901 10.7226 88.4841 11.461 88.4841 12.3514C88.4841 13.2418 88.5901 13.9838 88.8021 14.5774C89.0141 15.1639 89.3109 15.6056 89.6925 15.9024C90.0741 16.1921 90.5193 16.3369 91.0281 16.3369C91.4591 16.3369 91.8407 16.238 92.1729 16.0401C92.505 15.8352 92.7735 15.5384 92.9784 15.1498C93.1904 14.754 93.3176 14.2735 93.36 13.7082H98.7871C98.7659 15.1427 98.4373 16.3935 97.8013 17.4605C97.1654 18.5205 96.2644 19.3402 95.0984 19.9197C93.9395 20.4991 92.5545 20.7889 90.9433 20.7889Z" fill="white"/>
<path d="M130.295 4.21078V8.4507H119.568V4.21078H130.295ZM121.646 0.310061H127.497V15.2558C127.497 15.4819 127.536 15.6727 127.613 15.8282C127.691 15.9766 127.811 16.0896 127.974 16.1673C128.136 16.238 128.345 16.2733 128.599 16.2733C128.776 16.2733 128.981 16.2521 129.214 16.2097C129.454 16.1673 129.631 16.132 129.744 16.1037L130.592 20.2165C130.33 20.2942 129.956 20.3896 129.468 20.5027C128.988 20.6157 128.415 20.6899 127.751 20.7253C126.408 20.7959 125.281 20.6581 124.37 20.3119C123.458 19.9585 122.773 19.4038 122.313 18.6477C121.854 17.8916 121.631 16.9447 121.646 15.807V0.310061Z" fill="white"/>
<path d="M103.888 19.9332C104.751 20.4562 105.757 20.7176 106.905 20.7176C107.845 20.7176 109.007 20.7295 109.313 20.7295C109.614 20.7295 110.889 20.7176 111.829 20.7176C112.977 20.7176 113.983 20.4562 114.846 19.9333C115.701 19.4103 116.368 18.6895 116.846 17.7709C117.317 16.8522 117.556 15.7993 117.563 14.6122V4.22437H111.658V13.3826C111.651 14.1882 111.444 14.8206 111.037 15.2799C110.624 15.7393 110.197 15.9689 109.455 15.9689H109.429C108.688 15.9689 108.11 15.7393 107.697 15.2799C107.29 14.8206 107.083 14.1882 107.076 13.3826V4.22435H101.171V14.6121C101.178 15.7993 101.417 16.8522 101.888 17.7709C102.366 18.6895 103.033 19.4103 103.888 19.9332Z" fill="white"/>
</g>
<defs>
<clipPath id="clip0_2602_6258">
<rect width="130.739" height="17.3124" fill="white" transform="translate(0.580078 0.344238)"/>
</clipPath>
</defs>
</svg>
