<svg width="27" height="28" viewBox="0 0 27 28" fill="none" xmlns="http://www.w3.org/2000/svg">
<path d="M25.9995 6.58005C25.2155 5.22218 24.1718 4.03202 22.9279 3.07752C21.6839 2.12303 20.2642 1.42289 18.7497 1.01708C17.2352 0.611266 15.6556 0.507734 14.1011 0.71239C12.5465 0.917046 11.0476 1.42588 9.68969 2.20985C8.33182 2.99381 7.14166 4.03756 6.18716 5.28148C5.23267 6.5254 4.53253 7.94515 4.12672 9.45965C3.72091 10.9742 3.61737 12.5538 3.82203 14.1083C4.02669 15.6628 4.53552 17.1618 5.31949 18.5197L10.4895 15.5347C10.0975 14.8558 9.84309 14.1063 9.74076 13.3291C9.63843 12.5518 9.6902 11.762 9.8931 11.0047C10.096 10.2475 10.4461 9.53763 10.9233 8.91566C11.4006 8.2937 11.9957 7.77183 12.6746 7.37985C13.3535 6.98787 14.103 6.73345 14.8803 6.63112C15.6575 6.52879 16.4473 6.58056 17.2046 6.78346C17.9618 6.98637 18.6717 7.33644 19.2937 7.81369C19.9156 8.29093 20.4375 8.88601 20.8295 9.56495L25.9995 6.58005Z" fill="white"/>
<path d="M0.149488 21.5045C0.933454 22.8624 1.97719 24.0526 3.22112 25.0071C4.46504 25.9616 5.88479 26.6617 7.39929 27.0675C8.9138 27.4733 10.4934 27.5769 12.0479 27.3722C13.6024 27.1675 15.1014 26.6587 16.4593 25.8747C17.8172 25.0908 19.0073 24.047 19.9618 22.8031C20.9163 21.5592 21.6164 20.1395 22.0223 18.6249C22.4281 17.1104 22.5316 15.5308 22.3269 13.9763C22.1223 12.4218 21.6135 10.9228 20.8295 9.56495L15.6595 12.5498C16.0515 13.2288 16.3059 13.9783 16.4082 14.7555C16.5105 15.5328 16.4588 16.3226 16.2559 17.0798C16.053 17.8371 15.7029 18.547 15.2257 19.1689C14.7484 19.7909 14.1533 20.3128 13.4744 20.7047C12.7955 21.0967 12.046 21.3511 11.2687 21.4535C10.4914 21.5558 9.70164 21.504 8.94439 21.3011C8.18714 21.0982 7.47727 20.7482 6.8553 20.2709C6.23334 19.7937 5.71147 19.1986 5.31949 18.5197L0.149488 21.5045Z" fill="white"/>
</svg>
