<svg width="27" height="28" viewBox="0 0 27 28" fill="none" xmlns="http://www.w3.org/2000/svg">
<path d="M25.9995 6.57986C25.2155 5.22199 24.1718 4.03184 22.9279 3.07734C21.6839 2.12284 20.2642 1.4227 18.7497 1.01689C17.2352 0.611083 15.6556 0.50755 14.1011 0.712207C12.5465 0.916863 11.0476 1.4257 9.68969 2.20967C8.33182 2.99363 7.14166 4.03737 6.18716 5.2813C5.23267 6.52522 4.53253 7.94496 4.12672 9.45947C3.72091 10.974 3.61737 12.5536 3.82203 14.1081C4.02669 15.6626 4.53552 17.1616 5.31949 18.5195L10.4895 15.5346C10.0975 14.8556 9.84309 14.1061 9.74076 13.3289C9.63843 12.5516 9.6902 11.7618 9.8931 11.0046C10.096 10.2473 10.4461 9.53744 10.9233 8.91548C11.4006 8.29352 11.9957 7.77165 12.6746 7.37966C13.3535 6.98768 14.103 6.73326 14.8803 6.63094C15.6575 6.52861 16.4473 6.58037 17.2046 6.78328C17.9618 6.98618 18.6717 7.33626 19.2937 7.8135C19.9156 8.29075 20.4375 8.88583 20.8295 9.56476L25.9995 6.57986Z" fill="black"/>
<path d="M0.149488 21.5044C0.933454 22.8622 1.97719 24.0524 3.22112 25.0069C4.46504 25.9614 5.88479 26.6615 7.39929 27.0673C8.9138 27.4731 10.4934 27.5767 12.0479 27.372C13.6024 27.1674 15.1014 26.6585 16.4593 25.8746C17.8172 25.0906 19.0073 24.0469 19.9618 22.8029C20.9163 21.559 21.6164 20.1393 22.0223 18.6248C22.4281 17.1103 22.5316 15.5307 22.3269 13.9761C22.1223 12.4216 21.6135 10.9226 20.8295 9.56476L15.6595 12.5497C16.0515 13.2286 16.3059 13.9781 16.4082 14.7553C16.5105 15.5326 16.4588 16.3224 16.2559 17.0797C16.053 17.8369 15.7029 18.5468 15.2257 19.1688C14.7484 19.7907 14.1533 20.3126 13.4744 20.7046C12.7955 21.0965 12.046 21.351 11.2687 21.4533C10.4914 21.5556 9.70164 21.5039 8.94439 21.301C8.18714 21.098 7.47726 20.748 6.8553 20.2707C6.23334 19.7935 5.71147 19.1984 5.31949 18.5195L0.149488 21.5044Z" fill="black"/>
</svg>
