<svg width="136" height="37" viewBox="0 0 136 37" fill="none" xmlns="http://www.w3.org/2000/svg">
<path d="M134 36.4623C134.828 36.4623 135.5 35.7907 135.5 34.9623C135.5 34.1339 134.828 33.4623 134 33.4623V36.4623ZM0.702815 13.209C0.286834 13.9254 0.530384 14.8434 1.2468 15.2594L12.9215 22.0382C13.6379 22.4542 14.5559 22.2107 14.9718 21.4942C15.3878 20.7778 15.1443 19.8598 14.4279 19.4439L4.05039 13.4182L10.076 3.04077C10.492 2.32436 10.2484 1.40637 9.53201 0.990384C8.81559 0.574403 7.89761 0.817953 7.48162 1.53437L0.702815 13.209ZM134 33.4623C104.302 33.4623 83.7971 25.0647 64.3766 18.1736C44.9312 11.2736 26.5694 5.89187 1.61535 12.5124L2.38465 15.4121C26.4306 9.0325 44.0688 14.1508 63.3734 21.0008C82.7029 27.8597 103.698 36.4623 134 36.4623V33.4623Z" fill="#D2D2D2" style="mix-blend-mode:luminosity"/>
</svg>
