<svg width="139" height="59" viewBox="0 0 139 59" fill="none" xmlns="http://www.w3.org/2000/svg">
<path d="M129.251 58.2995C129.969 58.7133 130.886 58.4668 131.3 57.7491L138.042 46.0533C138.456 45.3356 138.209 44.4184 137.491 44.0047C136.774 43.5909 135.856 43.8373 135.443 44.555L129.45 54.9513L119.053 48.9582C118.336 48.5444 117.418 48.7908 117.005 49.5086C116.591 50.2263 116.837 51.1435 117.555 51.5572L129.251 58.2995ZM0.756727 27.1608C0.293244 27.8474 0.47415 28.7798 1.16079 29.2433C1.84743 29.7068 2.77979 29.5259 3.24327 28.8392L0.756727 27.1608ZM131.449 56.6108C122.275 22.4649 96.4867 4.84212 69.593 0.890927C42.7969 -3.04594 14.6561 6.56919 0.756727 27.1608L3.24327 28.8392C16.3439 9.43081 43.2031 0.0459379 69.157 3.85906C95.0133 7.65787 119.725 24.5351 128.551 57.3892L131.449 56.6108Z" fill="#D2D2D2" style="mix-blend-mode:luminosity"/>
</svg>
