<svg width="123" height="61" viewBox="0 0 123 61" fill="none" xmlns="http://www.w3.org/2000/svg">
<path d="M121.183 3.45121C122.005 3.35018 122.59 2.60172 122.489 1.77948C122.388 0.957232 121.639 0.372571 120.817 0.473598L121.183 3.45121ZM0.635532 52.377C0.291415 53.1306 0.623347 54.0205 1.37692 54.3646L13.6571 59.9723C14.4107 60.3164 15.3006 59.9845 15.6447 59.2309C15.9888 58.4773 15.6569 57.5875 14.9033 57.2434L3.98755 52.2587L8.97217 41.343C9.31629 40.5894 8.98436 39.6996 8.23078 39.3554C7.47721 39.0113 6.58735 39.3433 6.24323 40.0968L0.635532 52.377ZM120.817 0.473598C100.026 3.02822 85.821 10.0272 69.0283 19.2428C52.2601 28.4451 32.856 39.8893 1.47576 51.5947L2.52424 54.4055C34.144 42.6108 53.7399 31.055 70.4717 21.8728C87.179 12.704 100.974 5.93418 121.183 3.45121L120.817 0.473598Z" fill="#D2D2D2" style="mix-blend-mode:luminosity"/>
</svg>
